<svg width="25" height="25" viewBox="0 0 25 25" fill="none" xmlns="http://www.w3.org/2000/svg">
<path fill-rule="evenodd" clip-rule="evenodd" d="M16.5756 4.43992C14.8028 3.65002 12.8222 3.45434 10.9292 3.88205C9.03611 4.30976 7.33202 5.33796 6.07105 6.81328C4.81009 8.28861 4.05981 10.132 3.93211 12.0686C3.80441 14.0052 4.30614 15.9312 5.36246 17.5593C6.41879 19.1874 7.97311 20.4305 9.79362 21.103C11.6141 21.7756 13.6033 21.8417 15.4644 21.2914C17.3256 20.7411 18.959 19.604 20.121 18.0496C21.2831 16.4951 21.9115 14.6067 21.9126 12.6659V11.7465C21.9126 11.1942 22.3603 10.7465 22.9126 10.7465C23.4649 10.7465 23.9126 11.1942 23.9126 11.7465V12.6665C23.9112 15.0386 23.1431 17.3472 21.7229 19.2471C20.3026 21.1469 18.3062 22.5368 16.0315 23.2094C13.7568 23.8819 11.3256 23.8012 9.10051 22.9791C6.87545 22.1571 4.97572 20.6378 3.68465 18.6478C2.39359 16.6579 1.78037 14.3039 1.93644 11.937C2.09252 9.57008 3.00953 7.31702 4.55071 5.51384C6.09189 3.71066 8.17466 2.45398 10.4884 1.93122C12.8022 1.40846 15.2229 1.64763 17.3896 2.61306C17.8941 2.83784 18.1208 3.42902 17.896 3.93349C17.6713 4.43796 17.0801 4.6647 16.5756 4.43992Z" fill="#00CD90"/>
<path fill-rule="evenodd" clip-rule="evenodd" d="M23.6194 3.95904C24.0101 4.34937 24.0104 4.98254 23.6201 5.37326L13.6201 15.3833C13.4326 15.5709 13.1782 15.6764 12.9128 15.6765C12.6475 15.6766 12.3931 15.5712 12.2055 15.3836L9.20549 12.3836C8.81497 11.9931 8.81497 11.3599 9.20549 10.9694C9.59602 10.5789 10.2292 10.5789 10.6197 10.9694L12.9122 13.2619L22.2051 3.95975C22.5955 3.56903 23.2286 3.56871 23.6194 3.95904Z" fill="#00CD90"/>
</svg>
