<svg width="59" height="60" viewBox="0 0 59 60" fill="none" xmlns="http://www.w3.org/2000/svg">
<path d="M58.5733 23.1392C58.5733 22.6124 58.232 22.1751 57.7615 22.0074L51.1973 17.0271V7.64312C51.1973 6.97306 50.6525 6.42979 49.9806 6.42979H37.23L30.11 1.02785C29.6751 0.697261 29.0715 0.697261 28.6367 1.02785L21.5158 6.42979H8.76605C8.09415 6.42979 7.54938 6.97306 7.54938 7.64312V17.0263L0.984327 22.0075C0.514191 22.1754 0.17334 22.6127 0.17334 23.1392V55.5331C0.17334 57.4561 1.82725 59.0202 3.85958 59.0202H54.8865C56.9194 59.0202 58.5733 57.4561 58.5733 55.5331V23.1392ZM51.1973 20.0762L55.2346 23.1392L51.1973 26.2024V20.0762ZM29.3733 3.51791L33.2111 6.42979H25.535L29.3733 3.51791ZM9.98271 8.85645H36.804C36.8102 8.85653 36.8162 8.85942 36.8225 8.85942C36.8269 8.85942 36.831 8.85653 36.8354 8.85645H48.764V28.0486L29.3733 42.7605L9.98271 28.0489V8.85645ZM7.54938 20.0755V26.2027L3.51145 23.1392L7.54938 20.0755ZM2.60667 55.444V25.5016L22.3394 40.4728L2.60667 55.444ZM5.11055 56.5935L24.3489 41.9974L28.6367 45.2505C28.8541 45.4158 29.1137 45.4982 29.3733 45.4982C29.6329 45.4982 29.8926 45.4158 30.11 45.2505L34.3974 41.9976L53.6361 56.5935H5.11055ZM56.14 55.444L36.4069 40.473L56.14 25.5013V55.444Z" fill="#222326"/>
</svg>
