<svg width="101" height="125" viewBox="0 0 101 125" fill="none" xmlns="http://www.w3.org/2000/svg">
<path d="M44.9734 24.8001C44.9734 24.8001 45.0734 24.8001 44.9734 24.8001C46.5734 25.5001 48.5734 23.5001 47.9734 21.9001C47.7734 21.4001 46.9734 21.6001 46.5734 21.6001C45.6734 21.6001 44.7734 21.2001 43.8734 21.1001C42.6734 21.0001 42.7734 22.1001 43.1734 22.9001C43.4734 23.7001 44.1734 24.4001 44.9734 24.8001Z" fill="#222326"/>
<path d="M42.1733 16.2001C41.7733 15.7001 41.0733 15.3001 40.4733 15.1001C39.2733 14.7001 37.5733 15.0001 37.0733 16.3001C36.7733 17.1001 36.9733 18.0001 37.3733 19.0001C37.6733 19.7001 38.0733 20.4001 38.5733 20.9001C38.7733 21.2001 39.1733 21.7001 39.5733 21.7001C40.1733 21.7001 40.3733 21.1001 40.6733 20.6001C41.1733 19.7001 41.9733 19.0001 42.3733 18.0001C42.7733 17.4001 42.6733 16.7001 42.1733 16.2001ZM39.6733 18.9001C38.7733 18.9001 37.9733 18.2001 37.9733 17.2001C37.9733 16.2001 38.6733 15.5001 39.6733 15.5001C40.6733 15.5001 41.3733 16.2001 41.3733 17.2001C41.3733 18.2001 40.6733 18.9001 39.6733 18.9001Z" fill="#222326"/>
<path d="M39.6733 18.4C40.336 18.4 40.8733 17.8627 40.8733 17.2C40.8733 16.5373 40.336 16 39.6733 16C39.0105 16 38.4733 16.5373 38.4733 17.2C38.4733 17.8627 39.0105 18.4 39.6733 18.4Z" fill="#222326"/>
<path d="M53.5734 19.3C53.5734 19.2 53.6734 19.1 53.6734 19C54.0734 18.1 54.2734 17.1 53.8734 16.2C53.2734 14.9 51.6734 14.6 50.4734 15C49.8734 15.2 49.2734 15.6 48.7734 16.1C48.2734 16.7 48.1734 17.3 48.5734 18C49.1734 19.2 50.1734 20.3 51.0734 21.3C51.1734 21.4 51.3734 21.6 51.5734 21.5C52.4734 21.4 53.1734 20.1 53.5734 19.3ZM51.2734 19C50.3734 19 49.5734 18.3 49.5734 17.3C49.5734 16.3 50.2734 15.6 51.2734 15.6C52.2734 15.6 52.9734 16.3 52.9734 17.3C52.9734 18.3 52.1734 19 51.2734 19Z" fill="#222326"/>
<path d="M51.2734 18.5001C51.9361 18.5001 52.4734 17.9628 52.4734 17.3001C52.4734 16.6374 51.9361 16.1001 51.2734 16.1001C50.6106 16.1001 50.0734 16.6374 50.0734 17.3001C50.0734 17.9628 50.6106 18.5001 51.2734 18.5001Z" fill="#222326"/>
<path d="M79.3733 90.5C79.2733 90.3 79.1733 90.2 79.0733 90.1C78.9733 90 78.8733 89.8 78.6733 89.7C74.5733 85.3 72.5733 79.4 70.5733 73.8C68.9733 69.2 67.2733 64.6 66.7733 59.8C66.5733 57.5 66.7733 55.2 66.2733 52.9C65.7733 50.7 65.0733 48.7 64.0733 46.7C63.5733 45.7 63.0733 44.7 62.4733 43.7C60.5733 40.4 58.5733 37 57.5733 33.3C56.8733 30.5 57.0733 27.6 57.6733 24.8C57.9733 23.4 58.3733 22 58.8733 20.6C59.2733 19.4 59.9733 17.9 59.6733 16.7C59.5733 15.9 59.0733 15.4 58.5733 14.9C56.1733 12.3 53.0733 10.2 49.8733 8.80003C48.3733 8.10003 46.5733 8.00003 44.9733 8.60003C44.0733 9.00003 43.5733 9.00003 42.6733 8.80003C40.3733 8.40003 38.1733 9.50003 36.3733 10.9C35.0733 11.9 33.8733 13.1 32.6733 14.3C31.6733 15.4 30.4733 16.4 30.2733 17.9C29.9733 19.3 30.6733 20.6 31.0733 21.9C32.5733 26.1 35.2733 30 36.0733 34.4C36.3733 36.1 36.0733 37.4 35.4733 39C32.6733 46 32.7733 53.3 31.4733 60.6C31.1733 62.5 31.4733 64.5 31.2733 66.5C30.9733 68.7 30.0733 70.7 29.6733 72.8C28.5733 78.3 27.6733 83.8 24.6733 88.7C23.9733 89.8 25.6733 90.9 26.3733 89.8C28.2733 86.8 29.4733 83.5 30.3733 80.1C30.8733 78.1 31.1733 76.1 31.5733 74.1C31.8733 72.6 31.8733 70.9 32.4733 69.5C33.3733 67.4 34.0733 69.5 34.3733 70.7C34.8733 72.5 35.0733 74.3 35.2733 76.1C35.5733 78.4 35.9733 80.6 36.7733 82.8C37.3733 84.4 38.0733 86.4 39.4733 87.4C41.3733 88.6 42.6733 86.6 43.0733 85C43.8733 81.8 44.0733 78.5 44.0733 75.2C44.1733 72.5 43.9733 69.7 43.2733 67.1C42.0733 62.9 38.6733 58.8 39.2733 54.3C39.3733 53.9 39.4733 53.2 39.0733 52.8C38.1733 52 37.4733 53.3 37.3733 54C36.9733 56.1 37.5733 58.3 38.3733 60.2C39.1733 62.2 40.2733 64 40.9733 66C42.6733 70.9 42.2733 76.4 41.7733 81.4C41.6733 82.2 41.7733 85.4 40.5733 85.6C39.6733 85.7 39.2733 84 39.0733 83.4C38.1733 80.9 37.6733 78.4 37.3733 75.8C37.0733 73.3 36.6733 70.7 35.4733 68.4C34.7733 67.1 33.4733 66.4 33.1733 64.9C32.8733 63.5 33.1733 62 33.3733 60.6C33.9733 57.4 34.1733 54.2 34.4733 51C34.7733 47.7 35.3733 44.7 36.5733 41.7C37.0733 40.3 37.8733 38.9 38.0733 37.3C38.3733 34.5 37.5733 31.7 36.4733 29.1C35.8733 27.8 35.2733 26.5 34.6733 25.2C34.2733 24.3 33.5733 23.5 33.2733 22.6C33.1733 22.2 32.9733 21.7 33.0733 21.3C33.1733 20.9 33.5733 20.7 33.7733 20.3C34.1733 19.5 34.3733 18.5 34.6733 17.7C34.8733 17.2 35.0733 16.7 35.0733 16.2C35.0733 15.9 34.7733 15.7 34.8733 15.4C34.9733 14.8 35.8733 14.3 36.2733 14C36.8733 13.5 37.4733 12.9 38.0733 12.5C39.3733 11.6 40.7733 10.9 42.4733 11.1C43.6733 11.2 44.6733 11.2 45.7733 10.8C46.8733 10.4 48.2733 10.4 49.3733 10.9C51.5733 11.8 53.7733 13.2 55.5733 14.7C55.3733 15.5 55.6733 16.3 55.8733 17.1C56.0733 17.9 56.1733 18.7 56.3733 19.5C56.4733 20 56.6733 20.5 56.9733 20.8C56.9733 20.9 56.8733 21 56.8733 21.2C55.9733 23.8 55.2733 26.5 55.1733 29.2C55.0733 31.9 55.6733 34.6 56.6733 37.2C58.1733 41.1 60.8733 44.3 62.5733 48C64.5733 52.2 64.3733 56.9 65.1733 61.4C66.4733 69.2 68.8733 76.8 72.3733 83.9C73.3733 85.9 74.4733 87.9 75.8733 89.7C76.4733 90.5 77.1733 91.2 77.9733 91.7C78.3733 91.9 78.9733 92.1 79.2733 91.8C79.4733 91.2 79.4733 90.8 79.3733 90.5Z" fill="#222326"/>
<path d="M62.8734 66.0999C62.6734 66.2999 62.4734 66.4999 62.1734 66.7999C61.7734 67.1999 61.2734 67.5999 60.9734 68.0999C60.3734 69.2999 59.8734 70.5999 59.5734 72.1999C59.3734 73.2999 59.2734 74.2999 59.0734 75.2999C58.7734 77.4999 58.4734 79.4999 57.7734 81.4999L57.6734 81.7999C56.5734 85.0999 55.8734 85.8999 55.4734 86.0999C55.4734 86.0999 55.3734 85.9999 55.3734 85.7999C54.8734 84.5999 54.6734 83.1999 54.5734 81.7999C54.5734 81.4999 54.4734 81.1999 54.4734 80.8999C54.1734 78.8999 54.0734 77.1999 54.0734 75.4999C53.9734 71.5999 54.4734 68.1999 55.5734 65.2999C55.8734 64.3999 56.3734 63.5999 56.7734 62.6999C57.1734 61.8999 57.6734 61.0999 57.9734 60.1999C58.7734 58.0999 59.0734 55.8999 58.6734 53.6999C58.5734 53.1999 58.0734 52.7999 57.4734 52.8999C56.9734 52.9999 56.5734 53.4999 56.6734 54.0999C56.9734 55.8999 56.7734 57.7999 56.1734 59.4999C55.8734 60.2999 55.4734 60.9999 55.0734 61.7999C54.5734 62.6999 54.0734 63.5999 53.7734 64.5999C52.5734 67.7999 51.9734 71.3999 52.0734 75.5999C52.0734 77.2999 52.2734 79.1999 52.4734 81.1999C52.4734 81.4999 52.5734 81.7999 52.5734 82.0999C52.7734 83.5999 52.9734 85.1999 53.4734 86.5999C53.5734 86.8999 53.8734 87.5999 54.5734 87.8999C54.8734 87.9999 55.1734 88.0999 55.4734 88.0999C55.7734 88.0999 56.0734 87.9999 56.3734 87.8999C57.8734 87.1999 58.8734 84.7999 59.6734 82.4999L59.7734 82.1999C60.5734 79.9999 60.8734 77.7999 61.1734 75.5999C61.2734 74.5999 61.4734 73.5999 61.6734 72.5999C61.8734 71.1999 62.2734 70.0999 62.8734 69.0999C62.9734 68.7999 63.2734 68.5999 63.6734 68.2999C63.9734 67.9999 64.3734 67.6999 64.5734 67.2999C64.8734 66.8999 64.7734 66.1999 64.3734 65.8999C63.7734 65.5999 63.1734 65.6999 62.8734 66.0999Z" fill="#222326"/>
<path d="M50.1734 26.1C49.3734 26 48.5734 26.1 47.7734 26.5C47.1734 26.9 46.5734 27.4 45.7734 27.2C45.2734 27.1 44.7734 26.8 44.2734 26.6C43.2734 26.1 41.7734 25.7 41.0734 26.9C40.9734 27.1 40.9734 27.4 41.2734 27.6C41.7734 27.9 42.1734 27.2 42.5734 27.1C43.1734 27.1 43.5734 27.5 44.0734 27.7C44.6734 28 45.1734 28.2 45.8734 28.3C46.5734 28.4 47.1734 28.1 47.7734 27.8C48.3734 27.5 48.8734 27.1 49.4734 27.1C49.8734 27.1 50.5734 27.2 50.5734 26.7C50.5734 26.4 50.3734 26.1 50.1734 26.1Z" fill="#222326"/>
</svg>
