<svg width="156" height="130" viewBox="0 0 156 130" fill="none" xmlns="http://www.w3.org/2000/svg">
<path d="M155.125 32.1088L144.339 21.3236C144.124 21.1079 143.908 21 143.584 21H122.014C120.18 21 118.778 22.4021 118.778 24.2356V67.3767C118.778 69.2102 120.18 70.6123 122.014 70.6123H152.212C154.046 70.6123 155.448 69.2102 155.448 67.3767V32.8638C155.448 32.5403 155.34 32.3246 155.125 32.1088ZM144.663 24.667L151.781 31.7853H145.741C145.094 31.7853 144.663 31.3539 144.663 30.7068V24.667ZM153.291 67.3767C153.291 68.0239 152.86 68.4553 152.212 68.4553H122.014C121.367 68.4553 120.935 68.0239 120.935 67.3767V64.1412H140.349C140.996 64.1412 141.427 63.7097 141.427 63.0626C141.427 62.4155 140.996 61.9841 140.349 61.9841H120.935V46.8847H124.171C124.818 46.8847 125.249 46.4533 125.249 45.8062C125.249 45.159 124.818 44.7276 124.171 44.7276H120.935V24.2356C120.935 23.5885 121.367 23.1571 122.014 23.1571H142.506V30.7068C142.506 32.5403 143.908 33.9423 145.741 33.9423H153.291V44.7276H133.877C133.23 44.7276 132.799 45.159 132.799 45.8062C132.799 46.4533 133.23 46.8847 133.877 46.8847H153.291V61.9841H150.055C149.408 61.9841 148.977 62.4155 148.977 63.0626C148.977 63.7097 149.408 64.1412 150.055 64.1412H153.291V67.3767ZM146.82 63.0626C146.82 63.7097 146.388 64.1412 145.741 64.1412H144.663C144.016 64.1412 143.584 63.7097 143.584 63.0626C143.584 62.4155 144.016 61.9841 144.663 61.9841H145.741C146.388 61.9841 146.82 62.4155 146.82 63.0626ZM127.406 45.8062C127.406 45.159 127.838 44.7276 128.485 44.7276H129.563C130.21 44.7276 130.642 45.159 130.642 45.8062C130.642 46.4533 130.21 46.8847 129.563 46.8847H128.485C127.838 46.8847 127.406 46.4533 127.406 45.8062ZM132.583 50.7674L129.887 54.4344L132.583 58.1014C132.907 58.5317 132.799 59.2878 132.368 59.6103C131.638 59.977 131.146 59.8281 130.858 59.3946L128.485 56.2679V58.7485C128.485 59.3956 128.053 59.827 127.406 59.827C126.759 59.827 126.328 59.3956 126.328 58.7485V50.1203C126.328 49.4732 126.759 49.0418 127.406 49.0418C128.053 49.0418 128.485 49.4732 128.485 50.1203V52.6009L130.858 49.4742C131.181 49.0428 131.936 48.935 132.368 49.2585C132.799 49.5821 132.907 50.336 132.583 50.7674ZM136.035 51.1988V53.3559H138.192C138.839 53.3559 139.27 53.7873 139.27 54.4344C139.27 55.0815 138.839 55.5129 138.192 55.5129H136.035V57.67H139.27C139.917 57.67 140.349 58.1014 140.349 58.7485C140.349 59.3956 139.917 59.827 139.27 59.827H134.956C134.309 59.827 133.877 59.3956 133.877 58.7485V50.1203C133.877 49.4732 134.309 49.0418 134.956 49.0418H139.27C139.917 49.0418 140.349 49.4732 140.349 50.1203C140.349 50.7674 139.917 51.1988 139.27 51.1988H136.035ZM147.791 50.5517L145.741 54.6501V58.7485C145.741 59.3956 145.31 59.827 144.663 59.827C144.016 59.827 143.584 59.3956 143.584 58.7485V54.6501L141.535 50.5517C141.32 50.0124 141.535 49.3642 141.966 49.1485C142.506 48.9339 143.153 49.1485 143.369 49.5799L144.556 51.9527L145.742 49.5799C145.958 49.0407 146.605 48.825 147.144 49.1485C147.791 49.4732 148.006 50.1203 147.791 50.5517Z" fill="#222326"/>
<path d="M83.155 59.1149L79.1302 53.2686C77.781 51.3088 75.0902 50.8122 73.1304 52.1614L65.0483 57.7253C63.0885 59.0745 62.592 61.7653 63.9412 63.7251L67.966 69.5715C69.3152 71.5313 72.006 72.0278 73.9658 70.6787L82.0479 65.1147C84.0076 63.7656 84.5042 61.0747 83.155 59.1149ZM72.7426 68.9019C71.7632 69.5762 70.417 69.3278 69.7427 68.3484L65.7179 62.502C65.0436 61.5225 65.292 60.1764 66.2715 59.5021L74.3535 53.9381C75.333 53.2638 76.6791 53.5122 77.3534 54.4917L81.3783 60.3381C82.0526 61.3176 81.8042 62.6637 80.8247 63.338L72.7426 68.9019Z" fill="#222326"/>
<path d="M116.576 114.84L86.0951 70.5645L89.7058 68.0788C92.6451 66.0553 93.39 62.0184 91.3665 59.0791L82.0943 45.6105C80.0708 42.6712 76.0338 41.9263 73.0946 43.9498L57.3903 54.7611C54.4511 56.7846 53.7061 60.8215 55.7296 63.7608L65.0018 77.2294C67.0253 80.1687 71.0623 80.9136 74.0015 78.8901L77.6122 76.4044L95.6246 102.569L89.8077 106.573C88.9627 107.155 88.4036 108.026 88.239 108.996C88.0412 109.99 88.2526 111.003 88.8337 111.847C90.0199 113.57 92.3855 114.007 94.1084 112.82L94.3375 112.663L96.1919 115.356L95.9629 115.514C94.2399 116.7 93.8034 119.066 94.9889 120.788C95.5695 121.631 96.4402 122.19 97.413 122.357C98.4075 122.553 99.4204 122.342 100.264 121.761L106.081 117.757L108.093 120.68C109.104 122.149 111.123 122.522 112.593 121.51L115.745 119.34C117.215 118.328 117.587 116.309 116.576 114.84ZM83.9836 69.3994L77.2774 74.0161L72.7783 77.1134C70.8186 78.4626 68.1277 77.966 66.7786 76.0063L57.5063 62.5376C56.1571 60.5778 56.6537 57.887 58.6135 56.5378L74.3178 45.7265C76.2776 44.3773 78.9684 44.8738 80.3176 46.8336L89.5898 60.3023C90.939 62.2621 90.4424 64.9529 88.4826 66.3021L83.9836 69.3994V69.3994ZM99.0405 119.985C98.6796 120.233 98.2509 120.324 97.8044 120.236C97.3823 120.163 97.0135 119.925 96.7657 119.565C96.2544 118.822 96.4434 117.802 97.186 117.291L98.3034 116.522C98.7945 116.184 98.9183 115.513 98.5802 115.022L95.5026 110.551C95.1646 110.06 94.4937 109.936 94.0027 110.274L92.8853 111.044C92.1427 111.555 91.1217 111.367 90.6105 110.624C90.3626 110.264 90.2715 109.834 90.36 109.387C90.4315 108.967 90.6699 108.598 91.0308 108.35L96.8477 104.345L104.857 115.98L99.0405 119.985V119.985ZM111.369 119.733C110.879 120.071 110.207 119.947 109.869 119.456L107.246 115.645L98.0129 102.234L79.389 75.1812L84.3184 71.7877L114.799 116.063C115.136 116.553 115.012 117.225 114.522 117.563L111.369 119.733Z" fill="#222326"/>
<path d="M58.0189 29.4079L61.8484 23.4318C63.1321 21.4285 62.547 18.7555 60.5437 17.4718L52.2823 12.1779C50.279 10.8942 47.606 11.4793 46.3223 13.4826L42.4928 19.4587C41.2091 21.462 41.7942 24.135 43.7975 25.4187L52.0589 30.7126C54.0622 31.9963 56.7352 31.4112 58.0189 29.4079ZM44.9613 23.6025C43.9601 22.961 43.6674 21.6237 44.309 20.6225L48.1385 14.6464C48.7801 13.6452 50.1173 13.3525 51.1185 13.994L59.3799 19.288C60.3811 19.9296 60.6738 21.2668 60.0322 22.268L56.2027 28.2441C55.5611 29.2453 54.2239 29.538 53.2227 28.8965L44.9613 23.6025Z" fill="#222326"/>
<path d="M19.6022 81.8137L48.6036 36.5558L52.2945 38.9209C55.2989 40.8462 59.3091 39.9683 61.2344 36.9639L70.0567 23.1963C71.982 20.1918 71.1041 16.1817 68.0996 14.2564L52.0468 3.96967C49.0423 2.04439 45.0321 2.92228 43.1068 5.92675L34.2845 19.6943C32.3593 22.6988 33.2371 26.709 36.2416 28.6342L39.9325 30.9993L22.7942 57.7443L16.8482 53.9341C15.9845 53.3806 14.9651 53.2028 14.007 53.427C13.0138 53.6299 12.162 54.2174 11.6091 55.0803C10.4805 56.8415 10.995 59.1914 12.7561 60.32L12.9903 60.47L11.2258 63.2235L10.9917 63.0735C9.2305 61.9449 6.88057 62.4593 5.75256 64.2196C5.20021 65.0816 5.02235 66.101 5.24574 67.0623C5.45014 68.0551 6.03764 68.907 6.89961 69.4593L12.8456 73.2695L10.9311 76.2572C9.96848 77.7594 10.4074 79.7645 11.9097 80.7271L15.1323 82.7922C16.6345 83.7548 18.6396 83.3159 19.6022 81.8137ZM48.8593 34.1578L42.0044 29.7651L37.4054 26.8181C35.4021 25.5344 34.817 22.8614 36.1007 20.8581L44.923 7.09056C46.2067 5.08728 48.8797 4.50213 50.8829 5.78584L66.9358 16.0726C68.9391 17.3563 69.5242 20.0292 68.2405 22.0325L59.4182 35.8001C58.1345 37.8033 55.4616 38.3885 53.4583 37.1048L48.8593 34.1578V34.1578ZM8.06341 67.6432C7.69451 67.4068 7.4449 67.0467 7.35268 66.601C7.25601 66.1838 7.3329 65.7515 7.56873 65.3834C8.05516 64.6243 9.06877 64.4032 9.82787 64.8897L10.9701 65.6216C11.472 65.9432 12.1384 65.7973 12.4601 65.2954L15.3883 60.7257C15.71 60.2238 15.5641 59.5574 15.0621 59.2357L13.9199 58.5038C13.1608 58.0174 12.9388 57.0032 13.4253 56.2441C13.6611 55.8761 14.0218 55.6256 14.4683 55.5339C14.8832 55.437 15.3155 55.5139 15.6844 55.7503L21.6304 59.5605L14.0094 71.4534L8.06341 67.6432V67.6432ZM13.0735 78.911C12.5724 78.5899 12.4262 77.922 12.7473 77.421L15.2437 73.5253L24.0285 59.8162L41.7486 32.1632L46.7874 35.392L17.7861 80.6499C17.465 81.1509 16.7971 81.2971 16.2961 80.976L13.0735 78.911Z" fill="#222326"/>
</svg>
