<svg width="24" height="25" viewBox="0 0 24 25" fill="none" xmlns="http://www.w3.org/2000/svg">
<path d="M19.5633 6.66377L21 5.2833V4.98096H16.0242L12.4781 13.8497L8.44453 4.98096H3.22734V5.2833L4.90547 7.31299C5.06953 7.46299 5.15391 7.6833 5.13281 7.90361V15.8794C5.18438 16.1677 5.09297 16.4606 4.89141 16.6692L3 18.9731V19.2708H8.35781V18.9685L6.46875 16.6716C6.36754 16.5688 6.2914 16.4441 6.24628 16.3071C6.20116 16.1701 6.18826 16.0245 6.20859 15.8817V8.98174L10.9125 19.2755H11.4586L15.5039 8.98174V17.1825C15.5039 17.3981 15.5039 17.4427 15.3633 17.5856L13.9078 18.9989V19.3013H20.9672V18.9989L19.5633 17.6185C19.4414 17.5247 19.3781 17.3677 19.4039 17.2153V7.06689C19.3918 6.99158 19.4002 6.91438 19.4282 6.84344C19.4563 6.77249 19.5029 6.71042 19.5633 6.66377Z" fill="#828282"/>
</svg>
